<mxfile host="app.diagrams.net" modified="2022-12-23T05:51:29.877Z" agent="5.0 (Windows NT 10.0; Win64; x64) AppleWebKit/537.36 (KHTML, like Gecko) Chrome/108.0.0.0 Safari/537.36 Edg/108.0.1462.54" version="20.7.4" etag="aP8Wes448VhqrMmxWx3f" type="github">
  <diagram id="X9aSVQ1PUmTDmyYtMbg2" name="Page-1">
    <mxGraphModel dx="616" dy="573" grid="1" gridSize="10" guides="1" tooltips="1" connect="1" arrows="1" fold="1" page="1" pageScale="1" pageWidth="850" pageHeight="1100" math="0" shadow="0">
      <root>
        <mxCell id="0" />
        <mxCell id="1" parent="0" />
        <mxCell id="aGiLWS8U9I25v9T0Fqee-1" value="" style="edgeStyle=orthogonalEdgeStyle;rounded=0;orthogonalLoop=1;jettySize=auto;html=1;" edge="1" parent="1" source="aGiLWS8U9I25v9T0Fqee-2">
          <mxGeometry relative="1" as="geometry">
            <mxPoint x="215.0999999999999" y="140" as="targetPoint" />
          </mxGeometry>
        </mxCell>
        <mxCell id="aGiLWS8U9I25v9T0Fqee-2" value="START&lt;br&gt;submenu_C()" style="ellipse;whiteSpace=wrap;html=1;rounded=0;" vertex="1" parent="1">
          <mxGeometry x="170" width="90" height="60" as="geometry" />
        </mxCell>
        <mxCell id="aGiLWS8U9I25v9T0Fqee-3" value="&lt;div&gt;import option_functions as options&lt;/div&gt;" style="rounded=0;whiteSpace=wrap;html=1;glass=0;dashed=1;" vertex="1" parent="1">
          <mxGeometry x="255.12" y="80" width="194.88" height="40" as="geometry" />
        </mxCell>
        <mxCell id="aGiLWS8U9I25v9T0Fqee-4" value="" style="endArrow=none;dashed=1;html=1;rounded=0;strokeColor=default;entryX=0;entryY=0.5;entryDx=0;entryDy=0;" edge="1" parent="1" target="aGiLWS8U9I25v9T0Fqee-3">
          <mxGeometry width="50" height="50" relative="1" as="geometry">
            <mxPoint x="215" y="100.00000000000011" as="sourcePoint" />
            <mxPoint x="407.12" y="320" as="targetPoint" />
          </mxGeometry>
        </mxCell>
        <mxCell id="aGiLWS8U9I25v9T0Fqee-11" value="" style="edgeStyle=orthogonalEdgeStyle;rounded=0;orthogonalLoop=1;jettySize=auto;html=1;" edge="1" parent="1" source="aGiLWS8U9I25v9T0Fqee-7" target="aGiLWS8U9I25v9T0Fqee-10">
          <mxGeometry relative="1" as="geometry" />
        </mxCell>
        <mxCell id="aGiLWS8U9I25v9T0Fqee-7" value="sector_sel = &lt;br&gt;menu_select(&quot;SECTOR SUBMENU&quot;, &quot;sector&quot;, sector_dict)" style="rounded=0;whiteSpace=wrap;html=1;" vertex="1" parent="1">
          <mxGeometry x="55.85000000000001" y="340" width="317.9" height="60" as="geometry" />
        </mxCell>
        <mxCell id="aGiLWS8U9I25v9T0Fqee-8" value="" style="edgeStyle=orthogonalEdgeStyle;rounded=0;orthogonalLoop=1;jettySize=auto;html=1;" edge="1" parent="1" source="aGiLWS8U9I25v9T0Fqee-9" target="aGiLWS8U9I25v9T0Fqee-7">
          <mxGeometry relative="1" as="geometry" />
        </mxCell>
        <mxCell id="aGiLWS8U9I25v9T0Fqee-9" value="disp_header(&quot;OPTION C&quot;)" style="shape=process;whiteSpace=wrap;html=1;backgroundOutline=1;size=0.0945945945945946;" vertex="1" parent="1">
          <mxGeometry x="122.50000000000004" y="240" width="185" height="60" as="geometry" />
        </mxCell>
        <mxCell id="aGiLWS8U9I25v9T0Fqee-13" value="" style="edgeStyle=orthogonalEdgeStyle;rounded=0;orthogonalLoop=1;jettySize=auto;html=1;" edge="1" parent="1" source="aGiLWS8U9I25v9T0Fqee-10" target="aGiLWS8U9I25v9T0Fqee-12">
          <mxGeometry relative="1" as="geometry" />
        </mxCell>
        <mxCell id="aGiLWS8U9I25v9T0Fqee-10" value="options.disp_highest_percent_change_yoy(sector_sel)" style="shape=process;whiteSpace=wrap;html=1;backgroundOutline=1;size=0.04918032786885246;" vertex="1" parent="1">
          <mxGeometry x="51.05" y="440" width="327.9" height="60" as="geometry" />
        </mxCell>
        <mxCell id="aGiLWS8U9I25v9T0Fqee-12" value="END&lt;br&gt;submenu_C()" style="ellipse;whiteSpace=wrap;html=1;rounded=0;" vertex="1" parent="1">
          <mxGeometry x="169.8" y="540" width="90" height="60" as="geometry" />
        </mxCell>
        <mxCell id="aGiLWS8U9I25v9T0Fqee-15" value="" style="edgeStyle=orthogonalEdgeStyle;rounded=0;orthogonalLoop=1;jettySize=auto;html=1;" edge="1" parent="1" source="aGiLWS8U9I25v9T0Fqee-14" target="aGiLWS8U9I25v9T0Fqee-9">
          <mxGeometry relative="1" as="geometry" />
        </mxCell>
        <mxCell id="aGiLWS8U9I25v9T0Fqee-14" value="Initialise sector_sel to &quot;&quot;" style="rounded=0;whiteSpace=wrap;html=1;" vertex="1" parent="1">
          <mxGeometry x="147.3" y="140" width="135" height="60" as="geometry" />
        </mxCell>
      </root>
    </mxGraphModel>
  </diagram>
</mxfile>
